<svg width="189" height="199" viewBox="0 0 189 199" fill="none" xmlns="http://www.w3.org/2000/svg">
<mask id="path-1-outside-1_1_955" maskUnits="userSpaceOnUse" x="0" y="0" width="189" height="199" fill="black">
<rect fill="white" width="189" height="199"/>
<path d="M107.045 57.2C102.645 57.2 100.445 55.2667 100.445 51.4C100.445 49 101.245 47.1333 102.845 45.8C104.445 44.2 106.311 43.4 108.445 43.4C112.845 43.4 115.045 45.3333 115.045 49.2C115.045 51.3333 114.245 53.2 112.645 54.8C111.045 56.4 109.178 57.2 107.045 57.2ZM22.2445 188.6C14.3779 188.6 10.4445 186.267 10.4445 181.6C10.4445 176.933 15.1112 170.8 24.4445 163.2C31.2445 157.6 44.1779 151.533 63.2445 145C67.5112 135.667 72.1779 124.8 77.2445 112.4C82.3112 100 87.8445 86.1333 93.8445 70.8L94.2445 70.6C94.5112 70.7333 95.0445 70.8 95.8445 70.8C98.6445 70.8 102.311 69.8667 106.845 68L107.245 68.4L75.4445 140.4C93.0445 132.533 106.111 119.8 114.645 102.2C115.045 101.533 115.378 101.2 115.645 101.2C116.311 101.2 116.445 101.733 116.045 102.8C107.111 121.467 93.2445 134.867 74.4445 143C73.9112 144.067 73.2445 145.4 72.4445 147C71.7779 148.733 70.9779 150.733 70.0445 153C67.2445 160.2 62.3112 167.133 55.2445 173.8C48.0445 180.6 40.7779 185 33.4445 187C29.4445 188.067 25.7112 188.6 22.2445 188.6ZM19.6445 186.8C26.0445 186.8 32.9112 183.933 40.2445 178.2C46.6445 173.4 51.7112 167.667 55.4445 161C56.3779 159.4 57.3779 157.467 58.4445 155.2C59.5112 153.067 60.7112 150.533 62.0445 147.6C50.4445 151.467 39.6445 156.6 29.6445 163C18.1779 170.2 12.4445 176.6 12.4445 182.2C12.4445 185.267 14.8445 186.8 19.6445 186.8ZM128.01 136.6C117.21 136.6 111.81 129.467 111.81 115.2C111.81 106.667 113.677 96.7333 117.41 85.4C119.143 80.2 121.01 75.2 123.01 70.4C125.01 65.6 127.143 61.1333 129.41 57C132.21 51.9333 135.143 47.1333 138.21 42.6C141.277 37.9333 144.543 33.5333 148.01 29.4C158.01 17 166.543 10.8 173.61 10.8C176.543 10.8 178.01 12.2 178.01 15C178.01 18.7333 176.477 24.4667 173.41 32.2C163.143 57.6667 146.477 80.8667 123.41 101.8C121.143 110.2 120.01 116.933 120.01 122C120.01 130.667 122.743 135 128.21 135C130.077 135 131.877 134.667 133.61 134C135.343 133.2 136.877 132.333 138.21 131.4C141.81 128.6 144.877 125.333 147.41 121.6C149.943 117.867 152.143 114.133 154.01 110.4C155.877 106.667 157.543 103.533 159.01 101C159.41 100.333 159.81 100.133 160.21 100.4C160.61 100.533 160.677 100.933 160.41 101.6C157.743 107.2 154.81 112.933 151.61 118.8C148.41 124.667 144.343 129.333 139.41 132.8C135.81 135.333 132.01 136.6 128.01 136.6ZM124.01 99.8C126.677 97.5333 129.477 94.7333 132.41 91.4C135.343 88.0667 138.477 84.2667 141.81 80C145.143 75.7333 148.543 71 152.01 65.8C155.477 60.6 158.943 55 162.41 49C171.743 33.1333 176.41 22.0667 176.41 15.8C176.41 13.5333 175.677 12.4 174.21 12.4C169.277 12.4 160.477 23 147.81 44.2C144.477 50.2 141.477 56 138.81 61.6C135.61 68.6667 132.743 75.4 130.21 81.8C127.81 88.0667 125.743 94.0667 124.01 99.8Z"/>
</mask>
<path d="M107.045 57.2C102.645 57.2 100.445 55.2667 100.445 51.4C100.445 49 101.245 47.1333 102.845 45.8C104.445 44.2 106.311 43.4 108.445 43.4C112.845 43.4 115.045 45.3333 115.045 49.2C115.045 51.3333 114.245 53.2 112.645 54.8C111.045 56.4 109.178 57.2 107.045 57.2ZM22.2445 188.6C14.3779 188.6 10.4445 186.267 10.4445 181.6C10.4445 176.933 15.1112 170.8 24.4445 163.2C31.2445 157.6 44.1779 151.533 63.2445 145C67.5112 135.667 72.1779 124.8 77.2445 112.4C82.3112 100 87.8445 86.1333 93.8445 70.8L94.2445 70.6C94.5112 70.7333 95.0445 70.8 95.8445 70.8C98.6445 70.8 102.311 69.8667 106.845 68L107.245 68.4L75.4445 140.4C93.0445 132.533 106.111 119.8 114.645 102.2C115.045 101.533 115.378 101.2 115.645 101.2C116.311 101.2 116.445 101.733 116.045 102.8C107.111 121.467 93.2445 134.867 74.4445 143C73.9112 144.067 73.2445 145.4 72.4445 147C71.7779 148.733 70.9779 150.733 70.0445 153C67.2445 160.2 62.3112 167.133 55.2445 173.8C48.0445 180.6 40.7779 185 33.4445 187C29.4445 188.067 25.7112 188.6 22.2445 188.6ZM19.6445 186.8C26.0445 186.8 32.9112 183.933 40.2445 178.2C46.6445 173.4 51.7112 167.667 55.4445 161C56.3779 159.4 57.3779 157.467 58.4445 155.2C59.5112 153.067 60.7112 150.533 62.0445 147.6C50.4445 151.467 39.6445 156.6 29.6445 163C18.1779 170.2 12.4445 176.6 12.4445 182.2C12.4445 185.267 14.8445 186.8 19.6445 186.8ZM128.01 136.6C117.21 136.6 111.81 129.467 111.81 115.2C111.81 106.667 113.677 96.7333 117.41 85.4C119.143 80.2 121.01 75.2 123.01 70.4C125.01 65.6 127.143 61.1333 129.41 57C132.21 51.9333 135.143 47.1333 138.21 42.6C141.277 37.9333 144.543 33.5333 148.01 29.4C158.01 17 166.543 10.8 173.61 10.8C176.543 10.8 178.01 12.2 178.01 15C178.01 18.7333 176.477 24.4667 173.41 32.2C163.143 57.6667 146.477 80.8667 123.41 101.8C121.143 110.2 120.01 116.933 120.01 122C120.01 130.667 122.743 135 128.21 135C130.077 135 131.877 134.667 133.61 134C135.343 133.2 136.877 132.333 138.21 131.4C141.81 128.6 144.877 125.333 147.41 121.6C149.943 117.867 152.143 114.133 154.01 110.4C155.877 106.667 157.543 103.533 159.01 101C159.41 100.333 159.81 100.133 160.21 100.4C160.61 100.533 160.677 100.933 160.41 101.6C157.743 107.2 154.81 112.933 151.61 118.8C148.41 124.667 144.343 129.333 139.41 132.8C135.81 135.333 132.01 136.6 128.01 136.6ZM124.01 99.8C126.677 97.5333 129.477 94.7333 132.41 91.4C135.343 88.0667 138.477 84.2667 141.81 80C145.143 75.7333 148.543 71 152.01 65.8C155.477 60.6 158.943 55 162.41 49C171.743 33.1333 176.41 22.0667 176.41 15.8C176.41 13.5333 175.677 12.4 174.21 12.4C169.277 12.4 160.477 23 147.81 44.2C144.477 50.2 141.477 56 138.81 61.6C135.61 68.6667 132.743 75.4 130.21 81.8C127.81 88.0667 125.743 94.0667 124.01 99.8Z" fill="#D4D4D4"/>
<path d="M102.845 45.8L109.246 53.4822L109.595 53.1918L109.916 52.8711L102.845 45.8ZM112.645 54.8L105.573 47.7289L112.645 54.8ZM24.4445 163.2L30.7588 170.954L30.7802 170.937L30.8016 170.919L24.4445 163.2ZM63.2445 145L66.4861 154.46L70.5522 153.067L72.3393 149.158L63.2445 145ZM77.2445 112.4L86.5016 116.182L86.5016 116.182L77.2445 112.4ZM93.8445 70.8L89.3723 61.8558L85.9332 63.5753L84.5321 67.156L93.8445 70.8ZM94.2445 70.6L98.7167 61.6558L94.2446 59.4196L89.7723 61.6557L94.2445 70.6ZM106.845 68L113.916 60.9289L109.202 56.2149L103.037 58.7532L106.845 68ZM107.245 68.4L116.392 72.4402L119.16 66.1733L114.316 61.3289L107.245 68.4ZM75.4445 140.4L66.297 136.36L55.796 160.136L79.5252 149.53L75.4445 140.4ZM114.645 102.2L106.07 97.0551L105.841 97.4367L105.646 97.8373L114.645 102.2ZM116.045 102.8L125.065 107.117L125.254 106.722L125.408 106.311L116.045 102.8ZM74.4445 143L70.4739 133.822L67.1298 135.269L65.5003 138.528L74.4445 143ZM72.4445 147L63.5003 142.528L63.2844 142.96L63.1111 143.41L72.4445 147ZM70.0445 153L60.7978 149.193L60.7602 149.284L60.7245 149.376L70.0445 153ZM55.2445 173.8L48.3823 166.526L48.3783 166.53L55.2445 173.8ZM33.4445 187L36.0212 196.662L36.0484 196.655L36.0757 196.648L33.4445 187ZM40.2445 178.2L34.2445 170.2L34.1643 170.26L34.0853 170.322L40.2445 178.2ZM55.4445 161L46.8067 155.961L46.7624 156.037L46.7195 156.114L55.4445 161ZM58.4445 155.2L49.5003 150.728L49.447 150.834L49.3963 150.942L58.4445 155.2ZM62.0445 147.6L71.1482 151.738L80.6376 130.861L58.8823 138.113L62.0445 147.6ZM29.6445 163L34.9622 171.469L34.9987 171.446L35.0351 171.423L29.6445 163ZM107.045 47.2C106.091 47.2 107.244 46.9626 108.696 48.2383C109.444 48.8962 109.938 49.6825 110.207 50.391C110.453 51.04 110.445 51.4426 110.445 51.4H90.4445C90.4445 55.2345 91.595 59.8358 95.4934 63.2616C99.1451 66.4707 103.598 67.2 107.045 67.2V47.2ZM110.445 51.4C110.445 51.3119 110.457 51.6228 110.236 52.1392C109.998 52.694 109.626 53.1655 109.246 53.4822L96.4427 38.1178C92.2013 41.6523 90.4445 46.5373 90.4445 51.4H110.445ZM109.916 52.8711C109.919 52.8681 109.746 53.0362 109.384 53.1914C109.01 53.3517 108.663 53.4 108.445 53.4V33.4C103.486 33.4 99.1226 35.3798 95.7735 38.7289L109.916 52.8711ZM108.445 53.4C109.398 53.4 108.245 53.6374 106.793 52.3616C106.045 51.7038 105.551 50.9175 105.282 50.209C105.036 49.56 105.045 49.1574 105.045 49.2H125.045C125.045 45.3655 123.894 40.7642 119.996 37.3383C116.344 34.1292 111.891 33.4 108.445 33.4V53.4ZM105.045 49.2C105.045 48.982 105.093 48.6346 105.253 48.2608C105.408 47.8985 105.576 47.726 105.573 47.7289L119.716 61.8711C123.065 58.522 125.045 54.1589 125.045 49.2H105.045ZM105.573 47.7289C105.57 47.7319 105.743 47.5638 106.105 47.4085C106.479 47.2483 106.827 47.2 107.045 47.2V67.2C112.003 67.2 116.366 65.2202 119.716 61.8711L105.573 47.7289ZM22.2445 178.6C20.7424 178.6 19.6977 178.486 19.0219 178.352C18.3308 178.216 18.2488 178.103 18.4965 178.249C18.8089 178.435 19.4181 178.906 19.9 179.764C20.3766 180.612 20.4445 181.332 20.4445 181.6H0.444531C0.444531 187.375 3.21394 192.438 8.29251 195.451C12.5507 197.977 17.6494 198.6 22.2445 198.6V178.6ZM20.4445 181.6C20.4445 182.473 20.1043 181.919 21.9028 179.555C23.5683 177.366 26.4039 174.501 30.7588 170.954L18.1303 155.446C13.1518 159.5 8.98739 163.5 5.98624 167.445C3.11813 171.214 0.444531 176.06 0.444531 181.6H20.4445ZM30.8016 170.919C36.0796 166.573 47.4678 160.977 66.4861 154.46L60.003 135.54C40.8879 142.09 26.4094 148.627 18.0875 155.481L30.8016 170.919ZM72.3393 149.158C76.6766 139.67 81.3979 128.673 86.5016 116.182L67.9875 108.618C62.9578 120.927 58.3458 131.664 54.1498 140.842L72.3393 149.158ZM86.5016 116.182C91.5907 103.727 97.1428 89.8136 103.157 74.444L84.5321 67.156C78.5463 82.4531 73.0317 96.2725 67.9875 108.618L86.5016 116.182ZM98.3167 79.7442L98.7167 79.5442L89.7723 61.6557L89.3723 61.8558L98.3167 79.7442ZM89.7723 79.5442C91.4277 80.372 92.9645 80.5928 93.6042 80.6728C94.4284 80.7758 95.2091 80.8 95.8445 80.8V60.8C95.6799 60.8 95.794 60.7909 96.0849 60.8272C96.2382 60.8464 96.5334 60.8894 96.9199 60.9861C97.2798 61.0761 97.9362 61.2655 98.7167 61.6558L89.7723 79.5442ZM95.8445 80.8C100.584 80.8 105.681 79.2937 110.652 77.2468L103.037 58.7532C98.9414 60.4397 96.7054 60.8 95.8445 60.8V80.8ZM99.7735 75.0711L100.173 75.4711L114.316 61.3289L113.916 60.9289L99.7735 75.0711ZM98.097 64.3598L66.297 136.36L84.5921 144.44L116.392 72.4402L98.097 64.3598ZM79.5252 149.53C99.3084 140.687 114.099 126.247 123.643 106.563L105.646 97.8373C98.1237 113.353 86.7807 124.38 71.3639 131.27L79.5252 149.53ZM123.219 107.345C123.199 107.379 123.125 107.5 122.996 107.676C122.875 107.842 122.634 108.153 122.266 108.521C121.918 108.868 121.265 109.462 120.288 110.004C119.294 110.557 117.697 111.2 115.645 111.2V91.2C111.439 91.2 108.84 93.6628 108.123 94.3789C107.127 95.3751 106.456 96.4106 106.07 97.0551L123.219 107.345ZM115.645 111.2C114.575 111.2 112.562 110.997 110.498 109.62C108.23 108.109 107.02 105.934 106.543 104.025C106.125 102.351 106.286 101.022 106.381 100.456C106.486 99.8212 106.638 99.4047 106.681 99.2888L125.408 106.311C125.698 105.538 126.807 102.618 125.946 99.1746C125.402 96.9989 124.059 94.6244 121.592 92.9795C119.327 91.4697 117.048 91.2 115.645 91.2V111.2ZM107.024 98.4832C99.1208 114.998 87.0345 126.658 70.4739 133.822L78.4151 152.178C99.4546 143.076 115.102 127.935 125.065 107.117L107.024 98.4832ZM65.5003 138.528C64.9669 139.595 64.3003 140.928 63.5003 142.528L81.3888 151.472C82.1888 149.872 82.8555 148.539 83.3888 147.472L65.5003 138.528ZM63.1111 143.41C62.4797 145.052 61.7101 146.977 60.7978 149.193L79.2913 156.807C80.2456 154.49 81.0761 152.415 81.778 150.59L63.1111 143.41ZM60.7245 149.376C58.5828 154.883 54.6392 160.623 48.3823 166.526L62.1067 181.074C69.9832 173.643 75.9062 165.517 79.3646 156.624L60.7245 149.376ZM48.3783 166.53C42.0227 172.532 36.1534 175.896 30.8134 177.352L36.0757 196.648C45.4023 194.104 54.0664 188.668 62.1108 181.07L48.3783 166.53ZM30.8679 177.338C27.5511 178.222 24.6923 178.6 22.2445 178.6V198.6C26.7301 198.6 31.338 197.911 36.0212 196.662L30.8679 177.338ZM19.6445 196.8C29.0916 196.8 38.0844 192.582 46.4037 186.078L34.0853 170.322C27.738 175.284 22.9974 176.8 19.6445 176.8V196.8ZM46.2445 186.2C53.7065 180.604 59.723 173.826 64.1696 165.886L46.7195 156.114C43.6994 161.507 39.5826 166.196 34.2445 170.2L46.2445 186.2ZM64.0823 166.039C65.205 164.114 66.3412 161.905 67.4927 159.458L49.3963 150.942C48.4145 153.028 47.5507 154.686 46.8067 155.961L64.0823 166.039ZM67.3888 159.672C68.5259 157.398 69.7802 154.748 71.1482 151.738L52.9409 143.462C51.6422 146.319 50.4965 148.735 49.5003 150.728L67.3888 159.672ZM58.8823 138.113C46.5219 142.233 34.9705 147.719 24.254 154.577L35.0351 171.423C44.3186 165.481 54.3672 160.7 65.2068 157.087L58.8823 138.113ZM24.3268 154.531C18.2015 158.377 13.0366 162.352 9.29618 166.528C5.63254 170.617 2.44453 175.911 2.44453 182.2H22.4445C22.4445 182.889 22.1232 182.183 24.1929 179.872C26.1858 177.648 29.6209 174.823 34.9622 171.469L24.3268 154.531ZM2.44453 182.2C2.44453 186.832 4.53023 191.31 8.86064 194.077C12.428 196.356 16.5012 196.8 19.6445 196.8V176.8C18.946 176.8 18.6225 176.741 18.5774 176.732C18.5241 176.72 18.971 176.803 19.6284 177.223C20.3533 177.686 21.1743 178.464 21.7604 179.587C22.3299 180.678 22.4445 181.649 22.4445 182.2H2.44453ZM117.41 85.4L107.923 82.2377L107.918 82.2545L107.912 82.2713L117.41 85.4ZM123.01 70.4L113.779 66.5538L113.779 66.5538L123.01 70.4ZM129.41 57L120.658 52.1631L120.65 52.1774L120.642 52.1917L129.41 57ZM138.21 42.6L146.493 48.2031L146.53 48.1477L146.567 48.0918L138.21 42.6ZM148.01 29.4L155.672 35.8261L155.734 35.7524L155.794 35.6775L148.01 29.4ZM173.41 32.2L182.685 35.939L182.695 35.9127L182.706 35.8863L173.41 32.2ZM123.41 101.8L116.69 94.3948L114.519 96.3647L113.755 99.1948L123.41 101.8ZM133.61 134L137.2 143.333L137.504 143.216L137.801 143.08L133.61 134ZM138.21 131.4L143.945 139.592L144.151 139.448L144.35 139.294L138.21 131.4ZM147.41 121.6L155.685 127.215L155.685 127.215L147.41 121.6ZM154.01 110.4L162.954 114.872L162.954 114.872L154.01 110.4ZM159.01 101L150.435 95.855L150.395 95.922L150.356 95.9896L159.01 101ZM160.21 100.4L154.663 108.72L155.777 109.463L157.048 109.887L160.21 100.4ZM160.41 101.6L169.439 105.899L169.576 105.611L169.695 105.314L160.41 101.6ZM151.61 118.8L142.831 114.011L142.831 114.011L151.61 118.8ZM139.41 132.8L133.661 124.618L133.655 124.622L139.41 132.8ZM124.01 99.8L114.438 96.9061L104.61 129.415L130.487 107.419L124.01 99.8ZM132.41 91.4L124.903 84.7937L132.41 91.4ZM141.81 80L149.69 86.1564L149.69 86.1564L141.81 80ZM162.41 49L153.791 43.9298L153.771 43.9634L153.752 43.9972L162.41 49ZM147.81 44.2L139.226 39.0709L139.145 39.206L139.069 39.3436L147.81 44.2ZM138.81 61.6L129.782 57.3007L129.74 57.3874L129.701 57.4749L138.81 61.6ZM130.21 81.8L120.912 78.1195L120.892 78.1714L120.872 78.2235L130.21 81.8ZM128.01 126.6C125.015 126.6 124.244 125.756 123.833 125.214C123.025 124.147 121.81 121.357 121.81 115.2H101.81C101.81 123.31 103.295 131.22 107.887 137.286C112.877 143.877 120.205 146.6 128.01 146.6V126.6ZM121.81 115.2C121.81 108.06 123.385 99.2225 126.908 88.5287L107.912 82.2713C103.968 94.2441 101.81 105.274 101.81 115.2H121.81ZM126.897 88.5623C128.557 83.5809 130.339 78.8097 132.241 74.2461L113.779 66.5538C111.681 71.5903 109.73 76.8191 107.923 82.2377L126.897 88.5623ZM132.241 74.2462C134.118 69.7418 136.099 65.5995 138.178 61.8083L120.642 52.1917C118.188 56.6672 115.903 61.4582 113.779 66.5538L132.241 74.2462ZM138.163 61.8369C140.826 57.0176 143.604 52.4744 146.493 48.2031L129.927 36.9969C126.683 41.7922 123.594 46.8491 120.658 52.1631L138.163 61.8369ZM146.567 48.0918C149.428 43.7385 152.464 39.6516 155.672 35.8261L140.348 22.9739C136.623 27.4151 133.126 32.1282 129.853 37.1082L146.567 48.0918ZM155.794 35.6775C160.492 29.8521 164.497 25.931 167.788 23.5401C171.145 21.1012 172.998 20.8 173.61 20.8V0.79999C167.155 0.79999 161.209 3.59879 156.032 7.3599C150.79 11.169 145.528 16.5479 140.226 23.1225L155.794 35.6775ZM173.61 20.8C173.579 20.8 173.157 20.7999 172.503 20.5917C171.806 20.37 170.882 19.9201 170.005 19.0835C168.103 17.2673 168.01 15.2631 168.01 15H188.01C188.01 11.9369 187.184 7.83272 183.815 4.61644C180.532 1.48316 176.505 0.79999 173.61 0.79999V20.8ZM168.01 15C168.01 16.674 167.147 20.8651 164.114 28.5137L182.706 35.8863C185.806 28.0682 188.01 20.7926 188.01 15H168.01ZM164.135 28.461C154.504 52.3512 138.79 74.3384 116.69 94.3948L130.13 109.205C154.163 87.395 171.783 62.9821 182.685 35.939L164.135 28.461ZM113.755 99.1948C111.398 107.93 110.01 115.645 110.01 122H130.01C130.01 118.221 130.889 112.47 133.065 104.405L113.755 99.1948ZM110.01 122C110.01 127.062 110.75 132.563 113.602 137.085C116.943 142.382 122.32 145 128.21 145V125C128.181 125 128.643 125.002 129.295 125.346C129.975 125.706 130.368 126.178 130.518 126.415C130.625 126.585 130.475 126.419 130.309 125.63C130.145 124.85 130.01 123.672 130.01 122H110.01ZM128.21 145C131.298 145 134.315 144.443 137.2 143.333L130.02 124.667C129.439 124.89 128.856 125 128.21 125V145ZM137.801 143.08C139.984 142.072 142.049 140.919 143.945 139.592L132.476 123.208C131.704 123.747 130.703 124.328 129.42 124.92L137.801 143.08ZM144.35 139.294C148.767 135.858 152.557 131.824 155.685 127.215L139.135 115.985C137.197 118.842 134.853 121.342 132.071 123.506L144.35 139.294ZM155.685 127.215C158.447 123.145 160.875 119.031 162.954 114.872L145.066 105.928C143.412 109.236 141.44 112.588 139.135 115.985L155.685 127.215ZM162.954 114.872C164.765 111.251 166.333 108.311 167.664 106.01L150.356 95.9896C148.754 98.7559 146.989 102.082 145.066 105.928L162.954 114.872ZM167.585 106.145C167.441 106.385 166.425 108.123 164.082 109.294C162.734 109.968 161.011 110.414 159.08 110.253C157.19 110.095 155.693 109.407 154.663 108.72L165.757 92.0795C162.845 90.1381 158.832 89.559 155.138 91.4057C152.396 92.777 150.979 94.9486 150.435 95.855L167.585 106.145ZM157.048 109.887C155.783 109.465 154.239 108.64 152.922 107.135C151.588 105.611 150.94 103.906 150.696 102.444C150.277 99.9261 151.033 98.1161 151.125 97.8861L169.695 105.314C170.054 104.417 170.91 102.074 170.424 99.156C170.147 97.4942 169.424 95.6224 167.973 93.965C166.54 92.3262 164.837 91.4014 163.372 90.9132L157.048 109.887ZM151.382 97.3007C148.799 102.723 145.95 108.293 142.831 114.011L160.389 123.589C163.67 117.573 166.688 111.677 169.439 105.899L151.382 97.3007ZM142.831 114.011C140.286 118.677 137.206 122.127 133.661 124.618L145.16 140.982C151.481 136.54 156.534 130.656 160.389 123.589L142.831 114.011ZM133.655 124.622C131.563 126.094 129.743 126.6 128.01 126.6V146.6C134.277 146.6 140.058 144.572 145.165 140.978L133.655 124.622ZM130.487 107.419C133.603 104.77 136.746 101.611 139.917 98.0063L124.903 84.7937C122.208 87.8561 119.751 90.2962 117.534 92.1806L130.487 107.419ZM139.917 98.0063C143.004 94.4992 146.262 90.5448 149.69 86.1564L133.93 73.8436C130.692 77.9886 127.683 81.6342 124.903 84.7937L139.917 98.0063ZM149.69 86.1564C153.199 81.6649 156.746 76.7246 160.331 71.347L143.69 60.253C140.341 65.2754 137.088 69.8018 133.93 73.8436L149.69 86.1564ZM160.331 71.347C163.928 65.9514 167.507 60.1682 171.069 54.0028L153.752 43.9972C150.38 49.8318 147.026 55.2486 143.69 60.253L160.331 71.347ZM171.03 54.0702C175.816 45.9334 179.554 38.7804 182.124 32.6855C184.588 26.8422 186.41 20.9953 186.41 15.8H166.41C166.41 16.8714 165.898 19.6912 163.696 24.9145C161.599 29.8863 158.338 36.1999 153.791 43.9298L171.03 54.0702ZM186.41 15.8C186.41 13.9082 186.162 10.7636 184.256 7.81748C181.864 4.12151 177.986 2.39999 174.21 2.39999V22.4C173.278 22.4 171.974 22.2138 170.593 21.5022C169.177 20.7727 168.141 19.7278 167.464 18.6825C166.291 16.8698 166.41 15.4251 166.41 15.8H186.41ZM174.21 2.39999C169.631 2.39999 165.958 4.70895 163.675 6.47126C161.139 8.42878 158.646 11.0353 156.216 13.9624C151.327 19.8521 145.651 28.3167 139.226 39.0709L156.395 49.3291C162.636 38.8833 167.694 31.4479 171.604 26.7375C173.574 24.3646 174.998 22.9962 175.895 22.3037C177.045 21.416 176.323 22.4 174.21 22.4V2.39999ZM139.069 39.3436C135.644 45.5073 132.547 51.4934 129.782 57.3007L147.839 65.8993C150.407 60.5066 153.309 54.8927 156.552 49.0564L139.069 39.3436ZM129.701 57.4749C126.442 64.6702 123.512 71.5525 120.912 78.1195L139.508 85.4805C141.975 79.2475 144.778 72.6631 147.92 65.7251L129.701 57.4749ZM120.872 78.2235C118.396 84.6886 116.249 90.9171 114.438 96.9061L133.582 102.694C135.238 97.2162 137.225 91.4447 139.549 85.3765L120.872 78.2235Z" fill="#0A0A0A" mask="url(#path-1-outside-1_1_955)"/>
</svg>
