<?xml version="1.0" standalone="no"?>
<!DOCTYPE svg PUBLIC "-//W3C//DTD SVG 20010904//EN"
 "http://www.w3.org/TR/2001/REC-SVG-20010904/DTD/svg10.dtd">
<svg version="1.0" xmlns="http://www.w3.org/2000/svg"
 width="680.000000pt" height="696.000000pt" viewBox="0 0 680.000000 696.000000"
 preserveAspectRatio="xMidYMid meet">

<g transform="translate(0.000000,696.000000) scale(0.100000,-0.100000)"
fill="#000000" stroke="none">
<path d="M0 3480 l0 -3480 3400 0 3400 0 0 3480 0 3480 -3400 0 -3400 0 0
-3480z m2893 3145 c122 -32 272 -126 419 -264 76 -72 88 -80 97 -64 14 26 168
157 246 210 272 182 541 157 652 -61 65 -128 69 -385 8 -580 -8 -27 -15 -61
-15 -76 0 -25 5 -28 80 -49 252 -69 464 -207 535 -348 26 -51 30 -69 30 -143
0 -76 -4 -91 -32 -145 -74 -141 -258 -267 -518 -354 -105 -35 -106 -36 -76
-143 76 -277 43 -552 -81 -663 -88 -80 -202 -110 -321 -85 -121 25 -324 148
-462 281 l-61 58 -69 -65 c-152 -143 -303 -238 -425 -269 -96 -25 -203 -17
-266 20 -146 83 -204 204 -204 421 0 110 15 227 45 340 23 90 26 86 -83 117
-185 53 -391 168 -465 260 -68 83 -82 122 -82 227 0 85 3 101 29 150 73 140
297 281 550 347 l68 18 -7 43 c-4 24 -13 61 -20 82 -33 94 -46 345 -24 452 31
145 128 261 242 288 54 13 150 11 210 -5z m772 -3159 c56 -15 131 -47 157 -67
17 -13 16 -19 -8 -96 -14 -46 -29 -83 -34 -83 -5 0 -33 15 -62 33 -65 41 -109
57 -160 57 -83 0 -125 -53 -79 -99 10 -10 63 -33 118 -50 141 -43 204 -90 231
-170 42 -122 -30 -264 -156 -305 -133 -44 -334 -5 -447 87 l-29 24 24 83 c14
46 30 85 36 87 6 2 31 -13 55 -32 59 -50 127 -83 187 -91 88 -11 149 25 123
73 -18 34 -46 50 -148 83 -151 47 -202 90 -223 186 -20 88 13 179 85 236 69
54 219 74 330 44z m-1700 -301 l0 -300 -27 -57 c-17 -38 -40 -67 -68 -87 -76
-55 -205 -64 -296 -20 -48 22 -124 86 -124 102 0 14 70 129 84 139 5 3 28 -9
50 -28 75 -64 160 -66 177 -4 4 14 7 146 8 293 l1 268 98 -3 97 -3 0 -300z
m320 -95 l0 -395 -95 0 -95 0 -3 385 c-1 212 0 391 3 398 3 9 29 12 97 10 l93
-3 0 -395z m308 385 c8 -8 75 -107 148 -221 l134 -206 3 208 c1 132 6 212 13
221 15 17 160 18 177 1 14 -14 17 -754 3 -776 -5 -9 -31 -12 -92 -10 l-83 3
-141 216 -140 217 -5 -217 -5 -216 -95 0 -95 0 -3 384 c-1 275 1 388 9 397 16
20 152 19 172 -1z m1955 -72 l-3 -88 -193 -3 -193 -2 3 -63 3 -62 125 -5 125
-5 0 -80 0 -80 -125 -5 -125 -5 0 -65 0 -65 193 -3 192 -2 0 -85 0 -85 -295 0
-295 0 0 373 c0 204 3 382 6 395 l6 22 290 0 289 0 -3 -87z m314 70 c8 -10 75
-112 149 -227 l134 -208 5 223 5 224 90 0 90 0 0 -395 0 -395 -86 -3 -86 -3
-144 223 -144 222 -5 -219 -5 -220 -90 0 -90 0 -3 385 c-1 212 0 391 3 397 3
9 29 13 83 13 63 0 82 -4 94 -17z m-647 -995 c3 -13 6 -288 7 -613 l3 -590 23
-57 c31 -77 107 -159 172 -187 63 -27 179 -30 236 -6 82 34 144 103 180 200
17 46 19 97 24 660 l5 610 232 3 233 2 5 -23 c3 -12 4 -299 2 -637 -3 -538 -5
-623 -20 -680 -78 -300 -261 -489 -555 -572 -112 -32 -322 -32 -442 1 -237 63
-427 228 -516 449 -56 140 -57 147 -61 815 -3 467 -1 622 8 633 9 11 54 14
235 14 l224 0 5 -22z m-2303 -15 c17 -15 18 -51 18 -740 l0 -723 355 0 c340 0
355 -1 365 -19 6 -12 10 -95 10 -202 0 -156 -2 -185 -17 -201 -15 -17 -47 -18
-593 -18 -435 0 -579 3 -588 12 -9 9 -12 234 -12 950 0 882 1 938 18 947 10 6
101 11 221 11 176 0 207 -2 223 -17z m1512 1 c14 -14 16 -114 16 -948 0 -711
-3 -935 -12 -944 -17 -17 -439 -17 -456 0 -9 9 -12 233 -12 944 0 834 2 934
16 948 13 14 48 16 224 16 176 0 211 -2 224 -16z"/>
<path d="M2756 6303 c-19 -47 -17 -136 3 -259 26 -149 41 -214 50 -214 3 1 56
8 117 18 l111 17 76 92 76 92 -76 71 c-166 155 -335 242 -357 183z"/>
<path d="M3938 6301 c-66 -26 -160 -96 -246 -184 l-74 -74 67 -92 c40 -54 76
-93 88 -96 46 -10 200 -24 208 -20 16 10 62 273 63 360 1 130 -11 143 -106
106z"/>
<path d="M3163 5458 c-33 -57 -70 -127 -83 -156 -29 -65 -26 -76 70 -241 l67
-116 174 -2 174 -3 57 98 c31 53 69 125 84 160 l27 63 -34 67 c-19 37 -57 104
-84 150 l-49 82 -172 0 -172 0 -59 -102z m304 -89 c42 -26 63 -66 63 -119 0
-53 -21 -93 -63 -119 -63 -39 -152 -19 -192 43 -80 122 68 272 192 195z"/>
<path d="M2480 5436 c-162 -51 -285 -114 -317 -163 -15 -22 -15 -26 3 -50 11
-14 47 -42 81 -63 68 -41 301 -123 336 -118 17 2 31 25 66 106 l44 103 -44
102 c-52 119 -52 119 -169 83z"/>
<path d="M4146 5375 c-20 -48 -39 -98 -42 -110 -3 -14 11 -61 38 -124 l43
-103 37 6 c114 18 319 104 378 157 38 36 38 63 -2 99 -58 53 -262 138 -377
156 l-38 6 -37 -87z"/>
<path d="M2793 4633 c-25 -84 -46 -223 -47 -308 -2 -143 11 -165 85 -145 76
21 272 173 323 251 17 26 16 27 -50 115 -36 49 -71 92 -77 95 -7 4 -41 9 -77
13 -36 4 -83 9 -106 12 -40 6 -40 5 -51 -33z"/>
<path d="M3833 4651 l-102 -16 -65 -87 c-78 -103 -79 -97 34 -192 125 -104
214 -158 283 -171 33 -7 38 -5 47 20 14 38 12 139 -6 220 -8 39 -19 92 -24
119 -20 100 -30 126 -48 125 -9 -1 -63 -9 -119 -18z"/>
</g>
</svg>
