<svg xmlns="http://www.w3.org/2000/svg" viewBox="0 0 240 336" width="2.5in" height="3.5in"><defs><clipPath id="c"><rect x="12" y="12" width="216" height="312" rx="8"/></clipPath><linearGradient id="g" x1="0" y1="0" x2="0" y2="1"><stop offset="0" stop-color="#2a2118"/><stop offset="1" stop-color="#0b0806"/></linearGradient></defs><rect x="0.5" y="0.5" width="239" height="335" rx="12" fill="#fff" stroke="#bbb"/><g clip-path="url(#c)"><rect x="12" y="12" width="216" height="312" fill="url(#g)"/><g opacity="0.14"><path d="M12 8l4 4-4 4-4-4z" fill="#ffd24a"/><path d="M32 8l4 4-4 4-4-4z" fill="#ffd24a"/><path d="M52 8l4 4-4 4-4-4z" fill="#ffd24a"/><path d="M72 8l4 4-4 4-4-4z" fill="#ffd24a"/><path d="M92 8l4 4-4 4-4-4z" fill="#ffd24a"/><path d="M112 8l4 4-4 4-4-4z" fill="#ffd24a"/><path d="M132 8l4 4-4 4-4-4z" fill="#ffd24a"/><path d="M152 8l4 4-4 4-4-4z" fill="#ffd24a"/><path d="M172 8l4 4-4 4-4-4z" fill="#ffd24a"/><path d="M192 8l4 4-4 4-4-4z" fill="#ffd24a"/><path d="M212 8l4 4-4 4-4-4z" fill="#ffd24a"/><path d="M232 8l4 4-4 4-4-4z" fill="#ffd24a"/><path d="M22 28l4 4-4 4-4-4z" fill="#ffd24a"/><path d="M42 28l4 4-4 4-4-4z" fill="#ffd24a"/><path d="M62 28l4 4-4 4-4-4z" fill="#ffd24a"/><path d="M82 28l4 4-4 4-4-4z" fill="#ffd24a"/><path d="M102 28l4 4-4 4-4-4z" fill="#ffd24a"/><path d="M122 28l4 4-4 4-4-4z" fill="#ffd24a"/><path d="M142 28l4 4-4 4-4-4z" fill="#ffd24a"/><path d="M162 28l4 4-4 4-4-4z" fill="#ffd24a"/><path d="M182 28l4 4-4 4-4-4z" fill="#ffd24a"/><path d="M202 28l4 4-4 4-4-4z" fill="#ffd24a"/><path d="M222 28l4 4-4 4-4-4z" fill="#ffd24a"/><path d="M12 48l4 4-4 4-4-4z" fill="#ffd24a"/><path d="M32 48l4 4-4 4-4-4z" fill="#ffd24a"/><path d="M52 48l4 4-4 4-4-4z" fill="#ffd24a"/><path d="M72 48l4 4-4 4-4-4z" fill="#ffd24a"/><path d="M92 48l4 4-4 4-4-4z" fill="#ffd24a"/><path d="M112 48l4 4-4 4-4-4z" fill="#ffd24a"/><path d="M132 48l4 4-4 4-4-4z" fill="#ffd24a"/><path d="M152 48l4 4-4 4-4-4z" fill="#ffd24a"/><path d="M172 48l4 4-4 4-4-4z" fill="#ffd24a"/><path d="M192 48l4 4-4 4-4-4z" fill="#ffd24a"/><path d="M212 48l4 4-4 4-4-4z" fill="#ffd24a"/><path d="M232 48l4 4-4 4-4-4z" fill="#ffd24a"/><path d="M22 68l4 4-4 4-4-4z" fill="#ffd24a"/><path d="M42 68l4 4-4 4-4-4z" fill="#ffd24a"/><path d="M62 68l4 4-4 4-4-4z" fill="#ffd24a"/><path d="M82 68l4 4-4 4-4-4z" fill="#ffd24a"/><path d="M102 68l4 4-4 4-4-4z" fill="#ffd24a"/><path d="M122 68l4 4-4 4-4-4z" fill="#ffd24a"/><path d="M142 68l4 4-4 4-4-4z" fill="#ffd24a"/><path d="M162 68l4 4-4 4-4-4z" fill="#ffd24a"/><path d="M182 68l4 4-4 4-4-4z" fill="#ffd24a"/><path d="M202 68l4 4-4 4-4-4z" fill="#ffd24a"/><path d="M222 68l4 4-4 4-4-4z" fill="#ffd24a"/><path d="M12 88l4 4-4 4-4-4z" fill="#ffd24a"/><path d="M32 88l4 4-4 4-4-4z" fill="#ffd24a"/><path d="M52 88l4 4-4 4-4-4z" fill="#ffd24a"/><path d="M72 88l4 4-4 4-4-4z" fill="#ffd24a"/><path d="M92 88l4 4-4 4-4-4z" fill="#ffd24a"/><path d="M112 88l4 4-4 4-4-4z" fill="#ffd24a"/><path d="M132 88l4 4-4 4-4-4z" fill="#ffd24a"/><path d="M152 88l4 4-4 4-4-4z" fill="#ffd24a"/><path d="M172 88l4 4-4 4-4-4z" fill="#ffd24a"/><path d="M192 88l4 4-4 4-4-4z" fill="#ffd24a"/><path d="M212 88l4 4-4 4-4-4z" fill="#ffd24a"/><path d="M232 88l4 4-4 4-4-4z" fill="#ffd24a"/><path d="M22 108l4 4-4 4-4-4z" fill="#ffd24a"/><path d="M42 108l4 4-4 4-4-4z" fill="#ffd24a"/><path d="M62 108l4 4-4 4-4-4z" fill="#ffd24a"/><path d="M82 108l4 4-4 4-4-4z" fill="#ffd24a"/><path d="M102 108l4 4-4 4-4-4z" fill="#ffd24a"/><path d="M122 108l4 4-4 4-4-4z" fill="#ffd24a"/><path d="M142 108l4 4-4 4-4-4z" fill="#ffd24a"/><path d="M162 108l4 4-4 4-4-4z" fill="#ffd24a"/><path d="M182 108l4 4-4 4-4-4z" fill="#ffd24a"/><path d="M202 108l4 4-4 4-4-4z" fill="#ffd24a"/><path d="M222 108l4 4-4 4-4-4z" fill="#ffd24a"/><path d="M12 128l4 4-4 4-4-4z" fill="#ffd24a"/><path d="M32 128l4 4-4 4-4-4z" fill="#ffd24a"/><path d="M52 128l4 4-4 4-4-4z" fill="#ffd24a"/><path d="M72 128l4 4-4 4-4-4z" fill="#ffd24a"/><path d="M92 128l4 4-4 4-4-4z" fill="#ffd24a"/><path d="M112 128l4 4-4 4-4-4z" fill="#ffd24a"/><path d="M132 128l4 4-4 4-4-4z" fill="#ffd24a"/><path d="M152 128l4 4-4 4-4-4z" fill="#ffd24a"/><path d="M172 128l4 4-4 4-4-4z" fill="#ffd24a"/><path d="M192 128l4 4-4 4-4-4z" fill="#ffd24a"/><path d="M212 128l4 4-4 4-4-4z" fill="#ffd24a"/><path d="M232 128l4 4-4 4-4-4z" fill="#ffd24a"/><path d="M22 148l4 4-4 4-4-4z" fill="#ffd24a"/><path d="M42 148l4 4-4 4-4-4z" fill="#ffd24a"/><path d="M62 148l4 4-4 4-4-4z" fill="#ffd24a"/><path d="M82 148l4 4-4 4-4-4z" fill="#ffd24a"/><path d="M102 148l4 4-4 4-4-4z" fill="#ffd24a"/><path d="M122 148l4 4-4 4-4-4z" fill="#ffd24a"/><path d="M142 148l4 4-4 4-4-4z" fill="#ffd24a"/><path d="M162 148l4 4-4 4-4-4z" fill="#ffd24a"/><path d="M182 148l4 4-4 4-4-4z" fill="#ffd24a"/><path d="M202 148l4 4-4 4-4-4z" fill="#ffd24a"/><path d="M222 148l4 4-4 4-4-4z" fill="#ffd24a"/><path d="M12 168l4 4-4 4-4-4z" fill="#ffd24a"/><path d="M32 168l4 4-4 4-4-4z" fill="#ffd24a"/><path d="M52 168l4 4-4 4-4-4z" fill="#ffd24a"/><path d="M72 168l4 4-4 4-4-4z" fill="#ffd24a"/><path d="M92 168l4 4-4 4-4-4z" fill="#ffd24a"/><path d="M112 168l4 4-4 4-4-4z" fill="#ffd24a"/><path d="M132 168l4 4-4 4-4-4z" fill="#ffd24a"/><path d="M152 168l4 4-4 4-4-4z" fill="#ffd24a"/><path d="M172 168l4 4-4 4-4-4z" fill="#ffd24a"/><path d="M192 168l4 4-4 4-4-4z" fill="#ffd24a"/><path d="M212 168l4 4-4 4-4-4z" fill="#ffd24a"/><path d="M232 168l4 4-4 4-4-4z" fill="#ffd24a"/><path d="M22 188l4 4-4 4-4-4z" fill="#ffd24a"/><path d="M42 188l4 4-4 4-4-4z" fill="#ffd24a"/><path d="M62 188l4 4-4 4-4-4z" fill="#ffd24a"/><path d="M82 188l4 4-4 4-4-4z" fill="#ffd24a"/><path d="M102 188l4 4-4 4-4-4z" fill="#ffd24a"/><path d="M122 188l4 4-4 4-4-4z" fill="#ffd24a"/><path d="M142 188l4 4-4 4-4-4z" fill="#ffd24a"/><path d="M162 188l4 4-4 4-4-4z" fill="#ffd24a"/><path d="M182 188l4 4-4 4-4-4z" fill="#ffd24a"/><path d="M202 188l4 4-4 4-4-4z" fill="#ffd24a"/><path d="M222 188l4 4-4 4-4-4z" fill="#ffd24a"/><path d="M12 208l4 4-4 4-4-4z" fill="#ffd24a"/><path d="M32 208l4 4-4 4-4-4z" fill="#ffd24a"/><path d="M52 208l4 4-4 4-4-4z" fill="#ffd24a"/><path d="M72 208l4 4-4 4-4-4z" fill="#ffd24a"/><path d="M92 208l4 4-4 4-4-4z" fill="#ffd24a"/><path d="M112 208l4 4-4 4-4-4z" fill="#ffd24a"/><path d="M132 208l4 4-4 4-4-4z" fill="#ffd24a"/><path d="M152 208l4 4-4 4-4-4z" fill="#ffd24a"/><path d="M172 208l4 4-4 4-4-4z" fill="#ffd24a"/><path d="M192 208l4 4-4 4-4-4z" fill="#ffd24a"/><path d="M212 208l4 4-4 4-4-4z" fill="#ffd24a"/><path d="M232 208l4 4-4 4-4-4z" fill="#ffd24a"/><path d="M22 228l4 4-4 4-4-4z" fill="#ffd24a"/><path d="M42 228l4 4-4 4-4-4z" fill="#ffd24a"/><path d="M62 228l4 4-4 4-4-4z" fill="#ffd24a"/><path d="M82 228l4 4-4 4-4-4z" fill="#ffd24a"/><path d="M102 228l4 4-4 4-4-4z" fill="#ffd24a"/><path d="M122 228l4 4-4 4-4-4z" fill="#ffd24a"/><path d="M142 228l4 4-4 4-4-4z" fill="#ffd24a"/><path d="M162 228l4 4-4 4-4-4z" fill="#ffd24a"/><path d="M182 228l4 4-4 4-4-4z" fill="#ffd24a"/><path d="M202 228l4 4-4 4-4-4z" fill="#ffd24a"/><path d="M222 228l4 4-4 4-4-4z" fill="#ffd24a"/><path d="M12 248l4 4-4 4-4-4z" fill="#ffd24a"/><path d="M32 248l4 4-4 4-4-4z" fill="#ffd24a"/><path d="M52 248l4 4-4 4-4-4z" fill="#ffd24a"/><path d="M72 248l4 4-4 4-4-4z" fill="#ffd24a"/><path d="M92 248l4 4-4 4-4-4z" fill="#ffd24a"/><path d="M112 248l4 4-4 4-4-4z" fill="#ffd24a"/><path d="M132 248l4 4-4 4-4-4z" fill="#ffd24a"/><path d="M152 248l4 4-4 4-4-4z" fill="#ffd24a"/><path d="M172 248l4 4-4 4-4-4z" fill="#ffd24a"/><path d="M192 248l4 4-4 4-4-4z" fill="#ffd24a"/><path d="M212 248l4 4-4 4-4-4z" fill="#ffd24a"/><path d="M232 248l4 4-4 4-4-4z" fill="#ffd24a"/><path d="M22 268l4 4-4 4-4-4z" fill="#ffd24a"/><path d="M42 268l4 4-4 4-4-4z" fill="#ffd24a"/><path d="M62 268l4 4-4 4-4-4z" fill="#ffd24a"/><path d="M82 268l4 4-4 4-4-4z" fill="#ffd24a"/><path d="M102 268l4 4-4 4-4-4z" fill="#ffd24a"/><path d="M122 268l4 4-4 4-4-4z" fill="#ffd24a"/><path d="M142 268l4 4-4 4-4-4z" fill="#ffd24a"/><path d="M162 268l4 4-4 4-4-4z" fill="#ffd24a"/><path d="M182 268l4 4-4 4-4-4z" fill="#ffd24a"/><path d="M202 268l4 4-4 4-4-4z" fill="#ffd24a"/><path d="M222 268l4 4-4 4-4-4z" fill="#ffd24a"/><path d="M12 288l4 4-4 4-4-4z" fill="#ffd24a"/><path d="M32 288l4 4-4 4-4-4z" fill="#ffd24a"/><path d="M52 288l4 4-4 4-4-4z" fill="#ffd24a"/><path d="M72 288l4 4-4 4-4-4z" fill="#ffd24a"/><path d="M92 288l4 4-4 4-4-4z" fill="#ffd24a"/><path d="M112 288l4 4-4 4-4-4z" fill="#ffd24a"/><path d="M132 288l4 4-4 4-4-4z" fill="#ffd24a"/><path d="M152 288l4 4-4 4-4-4z" fill="#ffd24a"/><path d="M172 288l4 4-4 4-4-4z" fill="#ffd24a"/><path d="M192 288l4 4-4 4-4-4z" fill="#ffd24a"/><path d="M212 288l4 4-4 4-4-4z" fill="#ffd24a"/><path d="M232 288l4 4-4 4-4-4z" fill="#ffd24a"/><path d="M22 308l4 4-4 4-4-4z" fill="#ffd24a"/><path d="M42 308l4 4-4 4-4-4z" fill="#ffd24a"/><path d="M62 308l4 4-4 4-4-4z" fill="#ffd24a"/><path d="M82 308l4 4-4 4-4-4z" fill="#ffd24a"/><path d="M102 308l4 4-4 4-4-4z" fill="#ffd24a"/><path d="M122 308l4 4-4 4-4-4z" fill="#ffd24a"/><path d="M142 308l4 4-4 4-4-4z" fill="#ffd24a"/><path d="M162 308l4 4-4 4-4-4z" fill="#ffd24a"/><path d="M182 308l4 4-4 4-4-4z" fill="#ffd24a"/><path d="M202 308l4 4-4 4-4-4z" fill="#ffd24a"/><path d="M222 308l4 4-4 4-4-4z" fill="#ffd24a"/><path d="M12 328l4 4-4 4-4-4z" fill="#ffd24a"/><path d="M32 328l4 4-4 4-4-4z" fill="#ffd24a"/><path d="M52 328l4 4-4 4-4-4z" fill="#ffd24a"/><path d="M72 328l4 4-4 4-4-4z" fill="#ffd24a"/><path d="M92 328l4 4-4 4-4-4z" fill="#ffd24a"/><path d="M112 328l4 4-4 4-4-4z" fill="#ffd24a"/><path d="M132 328l4 4-4 4-4-4z" fill="#ffd24a"/><path d="M152 328l4 4-4 4-4-4z" fill="#ffd24a"/><path d="M172 328l4 4-4 4-4-4z" fill="#ffd24a"/><path d="M192 328l4 4-4 4-4-4z" fill="#ffd24a"/><path d="M212 328l4 4-4 4-4-4z" fill="#ffd24a"/><path d="M232 328l4 4-4 4-4-4z" fill="#ffd24a"/></g><text x="120" y="62" font-family="Georgia,serif" font-weight="700" text-anchor="middle" font-size="21" fill="#ffd24a" letter-spacing="1.5">BACK TO BACK</text><g transform="translate(52 170) rotate(-12)"><rect x="-17" y="-26" width="34" height="52" rx="4.08" fill="#fffaf0" stroke="#2a1a10" stroke-opacity="0.35"/><text x="0" y="8.64" font-family="Georgia,serif" font-weight="700" text-anchor="middle" font-size="24" fill="#1a1a1a">A</text></g><g transform="translate(80 170) rotate(0)"><rect x="-17" y="-26" width="34" height="52" rx="4.08" fill="#fffaf0" stroke="#2a1a10" stroke-opacity="0.35"/><text x="0" y="8.64" font-family="Georgia,serif" font-weight="700" text-anchor="middle" font-size="24" fill="#1a1a1a">J</text></g><g transform="translate(160 170) rotate(0)"><rect x="-17" y="-26" width="34" height="52" rx="4.08" fill="#fffaf0" stroke="#2a1a10" stroke-opacity="0.35"/><text x="0" y="8.64" font-family="Georgia,serif" font-weight="700" text-anchor="middle" font-size="24" fill="#c4161c">A</text></g><g transform="translate(188 170) rotate(12)"><rect x="-17" y="-26" width="34" height="52" rx="4.08" fill="#fffaf0" stroke="#2a1a10" stroke-opacity="0.35"/><text x="0" y="8.64" font-family="Georgia,serif" font-weight="700" text-anchor="middle" font-size="24" fill="#c4161c">J</text></g><path d="M128 132l-16 40h11l-7 34 21-44h-11l7-30z" fill="#ffd24a" stroke="#fff3c4" stroke-width="1.5" stroke-linejoin="round"/><text x="120" y="250" font-family="Georgia,serif" font-weight="700" text-anchor="middle" font-size="30" fill="#ffd24a">21 · 21</text><text x="120" y="294" font-family="Georgia,serif" font-weight="700" text-anchor="middle" font-size="12" fill="#ffd24a" letter-spacing="1">TWO NATURALS IN A ROW</text></g><rect x="12" y="12" width="216" height="312" rx="8" fill="none" stroke="#fff" stroke-opacity="0.55" stroke-width="2"/></svg>