<svg xmlns="http://www.w3.org/2000/svg" viewBox="0 0 240 336" width="2.5in" height="3.5in"><defs><clipPath id="c"><rect x="12" y="12" width="216" height="312" rx="8"/></clipPath><linearGradient id="g" x1="0" y1="0" x2="0" y2="1"><stop offset="0" stop-color="#c4161c"/><stop offset="1" stop-color="#6b0f0a"/></linearGradient></defs><rect x="0.5" y="0.5" width="239" height="335" rx="12" fill="#fff" stroke="#bbb"/><g clip-path="url(#c)"><rect x="12" y="12" width="216" height="312" fill="url(#g)"/><circle cx="32" cy="40" r="4" fill="#ffe27a"/><circle cx="32" cy="296" r="4" fill="#ffe27a"/><circle cx="54" cy="40" r="4" fill="#ffe27a"/><circle cx="54" cy="296" r="4" fill="#ffe27a"/><circle cx="76" cy="40" r="4" fill="#ffe27a"/><circle cx="76" cy="296" r="4" fill="#ffe27a"/><circle cx="98" cy="40" r="4" fill="#ffe27a"/><circle cx="98" cy="296" r="4" fill="#ffe27a"/><circle cx="120" cy="40" r="4" fill="#ffe27a"/><circle cx="120" cy="296" r="4" fill="#ffe27a"/><circle cx="142" cy="40" r="4" fill="#ffe27a"/><circle cx="142" cy="296" r="4" fill="#ffe27a"/><circle cx="164" cy="40" r="4" fill="#ffe27a"/><circle cx="164" cy="296" r="4" fill="#ffe27a"/><circle cx="186" cy="40" r="4" fill="#ffe27a"/><circle cx="186" cy="296" r="4" fill="#ffe27a"/><circle cx="208" cy="40" r="4" fill="#ffe27a"/><circle cx="208" cy="296" r="4" fill="#ffe27a"/><rect x="34" y="112" width="172" height="112" rx="12" fill="#3a0806" stroke="#ffd24a" stroke-width="4"/><rect x="46" y="130" width="44" height="76" rx="6" fill="#fff8e6" stroke="#6b0f0a" stroke-width="3"/><text x="68" y="186" font-family="Georgia,serif" font-weight="700" text-anchor="middle" font-size="50" fill="#c4161c">7</text><rect x="98" y="130" width="44" height="76" rx="6" fill="#fff8e6" stroke="#6b0f0a" stroke-width="3"/><text x="120" y="186" font-family="Georgia,serif" font-weight="700" text-anchor="middle" font-size="50" fill="#c4161c">7</text><rect x="150" y="130" width="44" height="76" rx="6" fill="#fff8e6" stroke="#6b0f0a" stroke-width="3"/><text x="172" y="186" font-family="Georgia,serif" font-weight="700" text-anchor="middle" font-size="50" fill="#c4161c">7</text><text x="120" y="92" font-family="Georgia,serif" font-weight="700" text-anchor="middle" font-size="22" fill="#ffd24a" letter-spacing="3">JACKPOT</text><path d="M40 168h-10M210 168h-10" stroke="#ffd24a" stroke-width="4" stroke-linecap="round"/></g><rect x="12" y="12" width="216" height="312" rx="8" fill="none" stroke="#fff" stroke-opacity="0.55" stroke-width="2"/></svg>
