<svg xmlns="http://www.w3.org/2000/svg" viewBox="0 0 240 336" width="2.5in" height="3.5in"><defs><clipPath id="c"><rect x="12" y="12" width="216" height="312" rx="8"/></clipPath><linearGradient id="g" x1="0" y1="0" x2="0" y2="1"><stop offset="0" stop-color="#11604c"/><stop offset="1" stop-color="#062a21"/></linearGradient></defs><rect x="0.5" y="0.5" width="239" height="335" rx="12" fill="#fff" stroke="#bbb"/><g clip-path="url(#c)"><rect x="12" y="12" width="216" height="312" fill="url(#g)"/><g opacity="0.12"><circle cx="12" cy="12" r="2" fill="#fff"/><circle cx="34" cy="12" r="2" fill="#fff"/><circle cx="56" cy="12" r="2" fill="#fff"/><circle cx="78" cy="12" r="2" fill="#fff"/><circle cx="100" cy="12" r="2" fill="#fff"/><circle cx="122" cy="12" r="2" fill="#fff"/><circle cx="144" cy="12" r="2" fill="#fff"/><circle cx="166" cy="12" r="2" fill="#fff"/><circle cx="188" cy="12" r="2" fill="#fff"/><circle cx="210" cy="12" r="2" fill="#fff"/><circle cx="232" cy="12" r="2" fill="#fff"/><circle cx="23" cy="34" r="2" fill="#fff"/><circle cx="45" cy="34" r="2" fill="#fff"/><circle cx="67" cy="34" r="2" fill="#fff"/><circle cx="89" cy="34" r="2" fill="#fff"/><circle cx="111" cy="34" r="2" fill="#fff"/><circle cx="133" cy="34" r="2" fill="#fff"/><circle cx="155" cy="34" r="2" fill="#fff"/><circle cx="177" cy="34" r="2" fill="#fff"/><circle cx="199" cy="34" r="2" fill="#fff"/><circle cx="221" cy="34" r="2" fill="#fff"/><circle cx="12" cy="56" r="2" fill="#fff"/><circle cx="34" cy="56" r="2" fill="#fff"/><circle cx="56" cy="56" r="2" fill="#fff"/><circle cx="78" cy="56" r="2" fill="#fff"/><circle cx="100" cy="56" r="2" fill="#fff"/><circle cx="122" cy="56" r="2" fill="#fff"/><circle cx="144" cy="56" r="2" fill="#fff"/><circle cx="166" cy="56" r="2" fill="#fff"/><circle cx="188" cy="56" r="2" fill="#fff"/><circle cx="210" cy="56" r="2" fill="#fff"/><circle cx="232" cy="56" r="2" fill="#fff"/><circle cx="23" cy="78" r="2" fill="#fff"/><circle cx="45" cy="78" r="2" fill="#fff"/><circle cx="67" cy="78" r="2" fill="#fff"/><circle cx="89" cy="78" r="2" fill="#fff"/><circle cx="111" cy="78" r="2" fill="#fff"/><circle cx="133" cy="78" r="2" fill="#fff"/><circle cx="155" cy="78" r="2" fill="#fff"/><circle cx="177" cy="78" r="2" fill="#fff"/><circle cx="199" cy="78" r="2" fill="#fff"/><circle cx="221" cy="78" r="2" fill="#fff"/><circle cx="12" cy="100" r="2" fill="#fff"/><circle cx="34" cy="100" r="2" fill="#fff"/><circle cx="56" cy="100" r="2" fill="#fff"/><circle cx="78" cy="100" r="2" fill="#fff"/><circle cx="100" cy="100" r="2" fill="#fff"/><circle cx="122" cy="100" r="2" fill="#fff"/><circle cx="144" cy="100" r="2" fill="#fff"/><circle cx="166" cy="100" r="2" fill="#fff"/><circle cx="188" cy="100" r="2" fill="#fff"/><circle cx="210" cy="100" r="2" fill="#fff"/><circle cx="232" cy="100" r="2" fill="#fff"/><circle cx="23" cy="122" r="2" fill="#fff"/><circle cx="45" cy="122" r="2" fill="#fff"/><circle cx="67" cy="122" r="2" fill="#fff"/><circle cx="89" cy="122" r="2" fill="#fff"/><circle cx="111" cy="122" r="2" fill="#fff"/><circle cx="133" cy="122" r="2" fill="#fff"/><circle cx="155" cy="122" r="2" fill="#fff"/><circle cx="177" cy="122" r="2" fill="#fff"/><circle cx="199" cy="122" r="2" fill="#fff"/><circle cx="221" cy="122" r="2" fill="#fff"/><circle cx="12" cy="144" r="2" fill="#fff"/><circle cx="34" cy="144" r="2" fill="#fff"/><circle cx="56" cy="144" r="2" fill="#fff"/><circle cx="78" cy="144" r="2" fill="#fff"/><circle cx="100" cy="144" r="2" fill="#fff"/><circle cx="122" cy="144" r="2" fill="#fff"/><circle cx="144" cy="144" r="2" fill="#fff"/><circle cx="166" cy="144" r="2" fill="#fff"/><circle cx="188" cy="144" r="2" fill="#fff"/><circle cx="210" cy="144" r="2" fill="#fff"/><circle cx="232" cy="144" r="2" fill="#fff"/><circle cx="23" cy="166" r="2" fill="#fff"/><circle cx="45" cy="166" r="2" fill="#fff"/><circle cx="67" cy="166" r="2" fill="#fff"/><circle cx="89" cy="166" r="2" fill="#fff"/><circle cx="111" cy="166" r="2" fill="#fff"/><circle cx="133" cy="166" r="2" fill="#fff"/><circle cx="155" cy="166" r="2" fill="#fff"/><circle cx="177" cy="166" r="2" fill="#fff"/><circle cx="199" cy="166" r="2" fill="#fff"/><circle cx="221" cy="166" r="2" fill="#fff"/><circle cx="12" cy="188" r="2" fill="#fff"/><circle cx="34" cy="188" r="2" fill="#fff"/><circle cx="56" cy="188" r="2" fill="#fff"/><circle cx="78" cy="188" r="2" fill="#fff"/><circle cx="100" cy="188" r="2" fill="#fff"/><circle cx="122" cy="188" r="2" fill="#fff"/><circle cx="144" cy="188" r="2" fill="#fff"/><circle cx="166" cy="188" r="2" fill="#fff"/><circle cx="188" cy="188" r="2" fill="#fff"/><circle cx="210" cy="188" r="2" fill="#fff"/><circle cx="232" cy="188" r="2" fill="#fff"/><circle cx="23" cy="210" r="2" fill="#fff"/><circle cx="45" cy="210" r="2" fill="#fff"/><circle cx="67" cy="210" r="2" fill="#fff"/><circle cx="89" cy="210" r="2" fill="#fff"/><circle cx="111" cy="210" r="2" fill="#fff"/><circle cx="133" cy="210" r="2" fill="#fff"/><circle cx="155" cy="210" r="2" fill="#fff"/><circle cx="177" cy="210" r="2" fill="#fff"/><circle cx="199" cy="210" r="2" fill="#fff"/><circle cx="221" cy="210" r="2" fill="#fff"/><circle cx="12" cy="232" r="2" fill="#fff"/><circle cx="34" cy="232" r="2" fill="#fff"/><circle cx="56" cy="232" r="2" fill="#fff"/><circle cx="78" cy="232" r="2" fill="#fff"/><circle cx="100" cy="232" r="2" fill="#fff"/><circle cx="122" cy="232" r="2" fill="#fff"/><circle cx="144" cy="232" r="2" fill="#fff"/><circle cx="166" cy="232" r="2" fill="#fff"/><circle cx="188" cy="232" r="2" fill="#fff"/><circle cx="210" cy="232" r="2" fill="#fff"/><circle cx="232" cy="232" r="2" fill="#fff"/><circle cx="23" cy="254" r="2" fill="#fff"/><circle cx="45" cy="254" r="2" fill="#fff"/><circle cx="67" cy="254" r="2" fill="#fff"/><circle cx="89" cy="254" r="2" fill="#fff"/><circle cx="111" cy="254" r="2" fill="#fff"/><circle cx="133" cy="254" r="2" fill="#fff"/><circle cx="155" cy="254" r="2" fill="#fff"/><circle cx="177" cy="254" r="2" fill="#fff"/><circle cx="199" cy="254" r="2" fill="#fff"/><circle cx="221" cy="254" r="2" fill="#fff"/><circle cx="12" cy="276" r="2" fill="#fff"/><circle cx="34" cy="276" r="2" fill="#fff"/><circle cx="56" cy="276" r="2" fill="#fff"/><circle cx="78" cy="276" r="2" fill="#fff"/><circle cx="100" cy="276" r="2" fill="#fff"/><circle cx="122" cy="276" r="2" fill="#fff"/><circle cx="144" cy="276" r="2" fill="#fff"/><circle cx="166" cy="276" r="2" fill="#fff"/><circle cx="188" cy="276" r="2" fill="#fff"/><circle cx="210" cy="276" r="2" fill="#fff"/><circle cx="232" cy="276" r="2" fill="#fff"/><circle cx="23" cy="298" r="2" fill="#fff"/><circle cx="45" cy="298" r="2" fill="#fff"/><circle cx="67" cy="298" r="2" fill="#fff"/><circle cx="89" cy="298" r="2" fill="#fff"/><circle cx="111" cy="298" r="2" fill="#fff"/><circle cx="133" cy="298" r="2" fill="#fff"/><circle cx="155" cy="298" r="2" fill="#fff"/><circle cx="177" cy="298" r="2" fill="#fff"/><circle cx="199" cy="298" r="2" fill="#fff"/><circle cx="221" cy="298" r="2" fill="#fff"/><circle cx="12" cy="320" r="2" fill="#fff"/><circle cx="34" cy="320" r="2" fill="#fff"/><circle cx="56" cy="320" r="2" fill="#fff"/><circle cx="78" cy="320" r="2" fill="#fff"/><circle cx="100" cy="320" r="2" fill="#fff"/><circle cx="122" cy="320" r="2" fill="#fff"/><circle cx="144" cy="320" r="2" fill="#fff"/><circle cx="166" cy="320" r="2" fill="#fff"/><circle cx="188" cy="320" r="2" fill="#fff"/><circle cx="210" cy="320" r="2" fill="#fff"/><circle cx="232" cy="320" r="2" fill="#fff"/></g><rect x="22" y="22" width="196" height="292" rx="4" fill="none" stroke="#d9c2ff" stroke-opacity="0.75" stroke-width="1.5"/><path d="M120 16l5 6-5 6-5-6zM120 308l5 6-5 6-5-6z" fill="#d9c2ff"/><circle cx="120" cy="168" r="50" fill="rgb(0 0 0 / 0.28)" stroke="#b78cff" stroke-width="3"/><path d="M90 190l-6-40 20 16 16-28 16 28 20-16-6 40z" fill="#f3e6c4" stroke="#fff8e6" stroke-width="2" stroke-linejoin="round"/><rect x="90" y="192" width="60" height="9" rx="2" fill="#f3e6c4"/><circle cx="84" cy="148" r="4" fill="#f3e6c4"/><circle cx="120" cy="136" r="4" fill="#f3e6c4"/><circle cx="156" cy="148" r="4" fill="#f3e6c4"/></g><rect x="12" y="12" width="216" height="312" rx="8" fill="none" stroke="#fff" stroke-opacity="0.55" stroke-width="2"/></svg>