<svg width="169" height="179" viewBox="0 0 169 179" fill="none" xmlns="http://www.w3.org/2000/svg">
<path d="M97.4 47.2C93 47.2 90.8 45.2667 90.8 41.4C90.8 39 91.6 37.1333 93.2 35.8C94.8 34.2 96.6667 33.4 98.8 33.4C103.2 33.4 105.4 35.3333 105.4 39.2C105.4 41.3333 104.6 43.2 103 44.8C101.4 46.4 99.5333 47.2 97.4 47.2ZM12.6 178.6C4.73333 178.6 0.799999 176.267 0.799999 171.6C0.799999 166.933 5.46667 160.8 14.8 153.2C21.6 147.6 34.5333 141.533 53.6 135C57.8667 125.667 62.5333 114.8 67.6 102.4C72.6667 90 78.2 76.1333 84.2 60.8L84.6 60.6C84.8667 60.7333 85.4 60.8 86.2 60.8C89 60.8 92.6667 59.8667 97.2 58L97.6 58.4L65.8 130.4C83.4 122.533 96.4667 109.8 105 92.2C105.4 91.5333 105.733 91.2 106 91.2C106.667 91.2 106.8 91.7333 106.4 92.8C97.4667 111.467 83.6 124.867 64.8 133C64.2667 134.067 63.6 135.4 62.8 137C62.1333 138.733 61.3333 140.733 60.4 143C57.6 150.2 52.6667 157.133 45.6 163.8C38.4 170.6 31.1333 175 23.8 177C19.8 178.067 16.0667 178.6 12.6 178.6ZM10 176.8C16.4 176.8 23.2667 173.933 30.6 168.2C37 163.4 42.0667 157.667 45.8 151C46.7333 149.4 47.7333 147.467 48.8 145.2C49.8667 143.067 51.0667 140.533 52.4 137.6C40.8 141.467 30 146.6 20 153C8.53333 160.2 2.8 166.6 2.8 172.2C2.8 175.267 5.2 176.8 10 176.8ZM118.366 126.6C107.566 126.6 102.166 119.467 102.166 105.2C102.166 96.6667 104.032 86.7333 107.766 75.4C109.499 70.2 111.366 65.2 113.366 60.4C115.366 55.6 117.499 51.1333 119.766 47C122.566 41.9333 125.499 37.1333 128.566 32.6C131.632 27.9333 134.899 23.5333 138.366 19.4C148.366 6.99999 156.899 0.79999 163.966 0.79999C166.899 0.79999 168.366 2.19999 168.366 5C168.366 8.73333 166.832 14.4667 163.766 22.2C153.499 47.6667 136.832 70.8667 113.766 91.8C111.499 100.2 110.366 106.933 110.366 112C110.366 120.667 113.099 125 118.566 125C120.432 125 122.232 124.667 123.966 124C125.699 123.2 127.232 122.333 128.566 121.4C132.166 118.6 135.232 115.333 137.766 111.6C140.299 107.867 142.499 104.133 144.366 100.4C146.232 96.6667 147.899 93.5333 149.366 91C149.766 90.3333 150.166 90.1333 150.566 90.4C150.966 90.5333 151.032 90.9333 150.766 91.6C148.099 97.2 145.166 102.933 141.966 108.8C138.766 114.667 134.699 119.333 129.766 122.8C126.166 125.333 122.366 126.6 118.366 126.6ZM114.366 89.8C117.032 87.5333 119.832 84.7333 122.766 81.4C125.699 78.0667 128.832 74.2667 132.166 70C135.499 65.7333 138.899 61 142.366 55.8C145.832 50.6 149.299 45 152.766 39C162.099 23.1333 166.766 12.0667 166.766 5.8C166.766 3.53333 166.032 2.39999 164.566 2.39999C159.632 2.39999 150.832 13 138.166 34.2C134.832 40.2 131.832 46 129.166 51.6C125.966 58.6667 123.099 65.4 120.566 71.8C118.166 78.0667 116.099 84.0667 114.366 89.8Z" fill="#D4D4D4"/>
</svg>
